<?xml version="1.0" standalone="no"?>
<!DOCTYPE svg PUBLIC "-//W3C//DTD SVG 20010904//EN"
 "http://www.w3.org/TR/2001/REC-SVG-20010904/DTD/svg10.dtd">
<svg version="1.0" xmlns="http://www.w3.org/2000/svg"
 width="523.000000pt" height="523.000000pt" viewBox="0 0 523.000000 523.000000"
 preserveAspectRatio="xMidYMid meet">
<metadata>
Created by potrace 1.11, written by Peter Selinger 2001-2013
</metadata>
<g transform="translate(0.000000,523.000000) scale(0.100000,-0.100000)"
fill="#000000" stroke="none">
<path d="M1697 3153 c-4 -1015 -5 -1041 -49 -1226 -55 -240 -188 -375 -398
-408 -97 -15 -270 -5 -379 21 -90 22 -224 81 -281 124 -25 19 -36 23 -41 14
-4 -7 -32 -85 -63 -172 -44 -124 -54 -162 -44 -168 217 -138 343 -181 582
-199 354 -26 634 64 806 259 150 171 223 386 261 772 7 72 13 457 16 1038 l5
922 -205 0 -206 0 -4 -977z"/>
<path d="M2657 4123 c-4 -3 -7 -667 -7 -1475 l0 -1468 205 0 205 0 0 519 0
520 503 3 502 4 75 25 c329 111 542 357 632 729 19 83 16 319 -6 400 -91 336
-304 587 -591 696 -132 50 -196 54 -881 54 -347 0 -634 -3 -637 -7z m1288
-373 c194 -31 363 -198 420 -415 21 -78 21 -232 0 -320 -34 -150 -133 -294
-246 -362 -101 -60 -126 -63 -616 -63 l-443 0 0 585 0 585 413 0 c226 0 439
-5 472 -10z"/>
</g>
</svg>
